<?xml version="1.0" encoding="UTF-8" standalone="no"?>
<!-- Created with Inkscape (http://www.inkscape.org/) -->

<svg
   xmlns:osb="http://www.openswatchbook.org/uri/2009/osb"
   xmlns:dc="http://purl.org/dc/elements/1.1/"
   xmlns:cc="http://creativecommons.org/ns#"
   xmlns:rdf="http://www.w3.org/1999/02/22-rdf-syntax-ns#"
   xmlns:svg="http://www.w3.org/2000/svg"
   xmlns="http://www.w3.org/2000/svg"
   xmlns:xlink="http://www.w3.org/1999/xlink"
   xmlns:sodipodi="http://sodipodi.sourceforge.net/DTD/sodipodi-0.dtd"
   xmlns:inkscape="http://www.inkscape.org/namespaces/inkscape"
   width="800"
   height="800"
   viewBox="0 0 211.66667 211.66667"
   version="1.1"
   id="svg8"
   inkscape:version="0.92.4 (5da689c313, 2019-01-14)"
   sodipodi:docname="new_classic.svg"
   inkscape:export-filename="D:\chcol\OneDrive\Design\BBGN\logos\current\new_classic.png"
   inkscape:export-xdpi="600"
   inkscape:export-ydpi="600">
  <defs
     id="defs2">
    <linearGradient
       inkscape:collect="always"
       id="linearGradient5085">
      <stop
         style="stop-color:#2563eb;stop-opacity:1;"
         offset="0"
         id="stop5081" />
      <stop
         style="stop-color:#2563eb;stop-opacity:0;"
         offset="1"
         id="stop5083" />
    </linearGradient>
    <linearGradient
       id="linearGradient6217"
       osb:paint="solid">
      <stop
         style="stop-color:#2563eb;stop-opacity:1;"
         offset="0"
         id="stop6215" />
    </linearGradient>
    <linearGradient
       id="linearGradient6176"
       osb:paint="solid">
      <stop
         style="stop-color:#2563eb;stop-opacity:1;"
         offset="0"
         id="stop6174" />
    </linearGradient>
    <linearGradient
       id="linearGradient6153"
       osb:paint="solid">
      <stop
         style="stop-color:#000000;stop-opacity:1;"
         offset="0"
         id="stop6151" />
    </linearGradient>
    <inkscape:perspective
       sodipodi:type="inkscape:persp3d"
       inkscape:vp_x="-7.6729168 : 172.50834 : 1"
       inkscape:vp_y="0 : 1000 : 0"
       inkscape:vp_z="203.99375 : 172.50834 : 1"
       inkscape:persp3d-origin="98.160423 : 137.23056 : 1"
       id="perspective3828" />
    <linearGradient
       inkscape:collect="always"
       xlink:href="#linearGradient5085"
       id="linearGradient5087"
       x1="11.917969"
       y1="460.14856"
       x2="355.0767"
       y2="460.14856"
       gradientUnits="userSpaceOnUse"
       gradientTransform="matrix(0.33072917,-0.06614584,-0.06614584,0.33072917,14.116794,71.007172)" />
    <linearGradient
       inkscape:collect="always"
       xlink:href="#linearGradient5085"
       id="linearGradient5089"
       x1="140.06445"
       y1="621.14658"
       x2="557.25326"
       y2="621.14658"
       gradientUnits="userSpaceOnUse"
       gradientTransform="matrix(0.33072917,-0.06614584,-0.06614584,0.33072917,14.116794,71.007172)" />
  </defs>
  <sodipodi:namedview
     id="base"
     pagecolor="#ffffff"
     bordercolor="#666666"
     borderopacity="1.0"
     inkscape:pageopacity="0.0"
     inkscape:pageshadow="2"
     inkscape:zoom="1.4142136"
     inkscape:cx="621.17352"
     inkscape:cy="341.52189"
     inkscape:document-units="mm"
     inkscape:current-layer="g6030"
     showgrid="false"
     units="px"
     width="200mm"
     inkscape:pagecheckerboard="false"
     showborder="true"
     inkscape:showpageshadow="false"
     borderlayer="false"
     inkscape:snap-global="true"
     inkscape:window-width="3440"
     inkscape:window-height="1377"
     inkscape:window-x="-8"
     inkscape:window-y="-8"
     inkscape:window-maximized="1"
     showguides="false"
     inkscape:object-paths="true" />
  <metadata
     id="metadata5">
    <rdf:RDF>
      <cc:Work
         rdf:about="">
        <dc:format>image/svg+xml</dc:format>
        <dc:type
           rdf:resource="http://purl.org/dc/dcmitype/StillImage" />
        <dc:title />
      </cc:Work>
    </rdf:RDF>
  </metadata>
  <g
     inkscape:label="Layer 1"
     inkscape:groupmode="layer"
     id="layer1"
     transform="translate(0,-85.333337)">
    <g
       id="g1041"
       transform="matrix(1.2775706,0,0,1.2775706,-22.334209,-38.410305)"
       inkscape:export-xdpi="600"
       inkscape:export-ydpi="600">
      <g
         transform="translate(-3.9546385,4.6829031)"
         id="g1011"
         inkscape:export-xdpi="600"
         inkscape:export-ydpi="600"
         style="fill:#2563eb;fill-opacity:1">
        <g
           id="g6030"
           transform="translate(-1.2534665,-3.1879516)">
          <path
             style="fill:#2563eb;fill-opacity:1;stroke:none;stroke-width:5.03298998;stroke-linecap:round;stroke-linejoin:round;stroke-miterlimit:4;stroke-dasharray:none;stroke-dashoffset:0;stroke-opacity:1"
             d="m 139.79779,149.40304 c -4.80275,0 -9.6044,1.52652 -13.63252,4.57559 -1.37075,1.46255 -6.99067,8.61518 -1.19567,22.58833 0,0 -7.63432,-3.31731 -8.55577,-13.14511 l -1.07109,1.07109 -2.90383,2.90383 c -1.80965,2.27767 -5.96834,9.38655 -0.68885,22.1167 0,0 -7.50424,-3.26267 -8.52948,-12.89837 l -3.09435,3.09434 c 2.1e-4,-1e-5 0.0129,-0.001 0.0129,-0.001 0,0 -8.036224,7.09548 -1.488518,22.88361 0,0 -7.494636,-3.25825 -8.527858,-12.87896 -1.517361,1.52964 -0.297576,0.3689 -1.979169,1.97917 -6.21e-4,0.001 -0.0014,0.001 -0.0021,0.002 -4.597471,4.6139 -6.985805,10.97945 -6.556779,17.47882 6.22e-4,0.002 0.0014,0.004 0.0021,0.006 0.348154,5.48441 2.677046,10.65319 6.554758,14.54707 8.863938,8.8641 23.156646,8.86533 32.023466,0.006 0.003,-0.002 0.005,-0.004 0.008,-0.006 0.0161,-0.0165 0.0324,-0.0328 0.0489,-0.0489 l 33.81049,-33.8105 v 0 c 0,0 0,0 1.77335,-1.77126 0.001,-0.001 0.001,-0.003 0.002,-0.004 l 0.004,-0.004 c 1.34462,-1.35923 2.51282,-2.88267 3.47457,-4.53514 0.003,-0.004 0.005,-0.008 0.008,-0.0117 0.001,-0.001 0.001,-0.003 0.002,-0.004 5.23522,-8.89397 3.80817,-20.16682 -3.47659,-27.47659 l -0.006,-0.006 c -4.43301,-4.43396 -10.22437,-6.65102 -16.01564,-6.65102 z"
             id="path6561-5-1"
             inkscape:connector-curvature="0"
             sodipodi:nodetypes="scccccccccccccccccccccccccccccss" />
          <path
             style="fill:#2563eb;fill-opacity:1;stroke:none;stroke-width:24.30236244;stroke-linecap:round;stroke-linejoin:round;stroke-miterlimit:4;stroke-dasharray:none;stroke-dashoffset:0;stroke-opacity:1"
             d="m 393.61133,89.078125 c -23.19063,0 -46.37595,7.370951 -65.82617,22.093755 -6.61884,7.06208 -33.75525,41.59935 -5.77344,109.07031 0,0 -36.86317,-16.01805 -41.3125,-63.47266 l -5.17188,5.17188 -14.02148,14.02148 c -8.73809,10.99795 -28.8188,45.32402 -3.32617,106.79297 0,0 -36.2351,-15.75416 -41.18555,-62.28125 l -14.94141,14.94141 c 0.001,-8e-5 0.0625,-0.006 0.0625,-0.006 0,0 -38.80384,34.26132 -7.1875,110.49609 0,0 -36.1887,-15.7328 -41.17773,-62.1875 -7.32675,7.38602 -1.43688,1.78126 -9.55664,9.55664 -0.003,0.005 -0.007,0.007 -0.01,0.01 -22.19941,22.27874 -33.73175,53.01549 -31.66015,84.39843 0.003,0.009 0.007,0.0182 0.01,0.0274 1.6811,26.48209 12.92642,51.44014 31.65039,70.24218 42.80053,42.80133 111.81447,42.80724 154.62891,0.0293 0.0124,-0.01 0.0247,-0.0196 0.0371,-0.0293 0.0777,-0.0799 0.15647,-0.15863 0.23633,-0.23632 l 171.84981,-171.84955 -0.0295,0.039 c 0.005,-0.005 0.005,-0.0147 0.01,-0.0195 l 0.0195,-0.0195 c 6.49265,-6.5632 12.13342,-13.9193 16.77734,-21.89844 0.013,-0.0189 0.026,-0.0378 0.0391,-0.0566 0.005,-0.005 0.006,-0.0147 0.01,-0.0195 25.27885,-42.94559 18.38818,-97.37778 -16.78711,-132.67383 l -0.0293,-0.0293 C 449.53935,99.783441 421.57512,89.078125 393.61133,89.078125 Z"
             transform="matrix(0.2070988,0,0,0.2070988,22.689886,95.363603)"
             id="path6561-5"
             inkscape:connector-curvature="0"
             sodipodi:nodetypes="sccccccccccccccccccccccccccccs" />
          <g
             transform="translate(4.3490746,2.8993831)"
             id="g5902"
             inkscape:export-filename="D:\chcol\OneDrive\Design\BBGN\logos\current\buns_new1.png"
             inkscape:export-xdpi="600"
             inkscape:export-ydpi="600" />
        </g>
      </g>
    </g>
    <rect
       transform="rotate(45)"
       style="fill:none;stroke-width:0.17013466"
       id="rect1144"
       width="61.418613"
       height="41.172592"
       x="16.500435"
       y="302.99628" />
  </g>
</svg>
